<svg version="1.1" id="Layer_1" xmlns="http://www.w3.org/2000/svg" xmlns:xlink="http://www.w3.org/1999/xlink" x="0px" y="0px"
	 width="100%" viewBox="0 0 1024 1024" enable-background="new 0 0 1024 1024" xml:space="preserve">
<path fill="#000000" opacity="1.000000" stroke="none" 
	d="
M547.040466,542.327515 
	C526.208740,557.893799 492.367218,557.111206 476.546997,528.421997 
	C464.644562,506.837524 468.179901,474.552673 489.992432,457.833160 
	C503.928192,447.151245 529.045593,446.745667 543.792175,456.757782 
	C545.420349,457.863251 547.045654,458.972961 549.155640,460.409821 
	C550.068176,452.828156 549.527405,445.728394 549.633423,438.657318 
	C549.723267,432.660004 549.776306,426.656921 549.609070,420.663025 
	C549.517273,417.375214 550.819458,415.803497 554.043030,415.288971 
	C559.683960,414.388550 565.295471,414.492950 570.937500,415.140900 
	C574.959839,415.602875 576.493958,417.611450 576.429138,421.798065 
	C576.209778,435.958099 576.347534,450.123688 576.346436,464.287140 
	C576.344360,490.281250 576.256104,516.275879 576.415894,542.268982 
	C576.444458,546.908752 575.334351,549.459717 570.216248,549.737976 
	C567.581055,549.881287 564.928955,550.275208 562.272400,550.209717 
	C554.108093,550.008728 553.840210,549.766785 551.295593,541.879089 
	C551.105408,541.289429 550.637146,540.789368 550.360596,540.347412 
	C548.737732,540.201538 548.237366,541.504639 547.040466,542.327515 
M524.404785,527.635498 
	C536.284546,527.266846 546.600769,518.951599 549.312134,507.559204 
	C552.181824,495.501740 546.017639,481.899048 535.094482,476.184509 
	C526.238953,471.551666 515.046387,472.902893 507.623779,479.501007 
	C499.113831,487.065643 496.171051,499.810425 500.343903,511.028839 
	C504.121552,521.184814 512.833557,527.425293 524.404785,527.635498 
z"/>
<path fill="#000000" opacity="1.000000" stroke="none" 
	d="
M229.295654,528.984131 
	C224.385513,539.503479 216.363297,545.569214 205.660309,548.647400 
	C185.347473,554.489380 165.786301,553.221436 147.506866,542.236023 
	C138.024353,536.537292 131.378967,528.416748 130.633789,516.632263 
	C130.408691,513.072327 131.509964,511.429077 135.365112,511.583008 
	C141.354126,511.822052 147.360535,511.727173 153.357147,511.628113 
	C156.016510,511.584167 157.657089,512.537415 158.784851,515.031738 
	C166.050797,531.102112 188.381882,531.249207 198.701736,524.595215 
	C206.673874,519.454956 206.634308,507.971985 198.657776,502.878601 
	C193.077332,499.315125 186.654892,498.096008 180.413437,496.367371 
	C172.081650,494.059753 163.789734,491.628448 155.826813,488.202942 
	C143.040527,482.702515 134.666138,473.535065 133.788025,459.290833 
	C132.821259,443.608337 138.725311,430.991028 152.790665,422.958038 
	C171.851624,412.071960 204.274963,415.495728 219.391190,429.834198 
	C225.034042,435.186676 228.258591,441.800262 230.104126,449.208588 
	C231.048218,452.998260 229.385818,455.102905 225.638748,455.188385 
	C220.315567,455.309845 214.981628,455.176727 209.658005,454.989563 
	C205.569412,454.845795 202.684601,453.036835 200.536270,449.233521 
	C194.044083,437.740021 174.339294,438.486755 167.314178,443.500366 
	C160.619675,448.278015 160.693970,458.471130 167.458206,463.756409 
	C172.013794,467.316010 177.345367,469.124298 182.823624,470.687469 
	C193.367859,473.696136 204.077744,476.244446 214.052109,480.964020 
	C227.468735,487.312378 233.982010,498.377777 232.876526,513.137939 
	C232.479965,518.432617 231.770981,523.727844 229.295654,528.984131 
z"/>
<path fill="#000000" opacity="1.000000" stroke="none" 
	d="
M728.154419,337.164734 
	C732.219788,345.927032 727.115173,352.753235 724.008362,359.613098 
	C709.515503,391.614166 726.031738,424.564758 755.743347,435.674530 
	C787.290100,447.470490 822.236572,427.072113 827.624451,393.919250 
	C831.611633,369.385681 819.049316,346.713623 796.246887,336.881622 
	C794.072693,335.944092 789.411194,336.243073 791.712524,331.204285 
	C794.930664,324.158051 797.919189,321.968262 802.367249,323.772491 
	C828.010681,334.173920 842.513733,356.582611 842.540833,385.845062 
	C842.572083,419.599670 817.988037,448.763824 784.518311,453.024445 
	C743.668579,458.224548 710.521606,431.223785 704.889648,392.971558 
	C702.270020,375.179138 706.637268,358.593292 717.406738,343.925903 
	C718.292664,342.719238 719.151062,341.489349 719.955017,340.227356 
	C720.204529,339.835571 720.231750,339.302124 720.443115,338.534698 
	C715.414429,334.444092 709.483704,331.737427 703.821350,328.721588 
	C684.759705,318.569031 677.309021,301.700653 675.470459,281.321198 
	C675.065735,276.834473 676.945740,275.194733 681.216003,275.647614 
	C709.970520,278.697388 729.819519,289.600037 735.916382,318.991638 
	C737.193115,325.146820 736.676270,331.489166 735.521240,337.974640 
	C729.618896,326.125336 723.759888,314.343201 713.047913,305.890564 
	C718.545837,315.973572 724.662476,325.719238 728.154419,337.164734 
z"/>
<path fill="#000000" opacity="1.000000" stroke="none" 
	d="
M629.073364,551.364380 
	C601.103149,545.711975 588.954163,519.054565 592.367310,494.224243 
	C594.114929,481.510223 598.677002,470.655701 607.862915,461.598511 
	C614.308228,455.243500 621.953186,451.377716 630.698059,450.232941 
	C649.698425,447.745605 666.886902,451.195709 679.685730,467.080414 
	C685.322266,474.075867 688.007202,482.111511 688.367859,491.029266 
	C688.502197,494.351501 689.030701,497.658936 689.137573,500.980896 
	C689.337585,507.197540 688.177490,508.372559 682.097107,508.375854 
	C663.265076,508.386108 644.432983,508.358368 625.600952,508.374512 
	C623.815063,508.376038 621.940735,508.007233 620.318237,509.035675 
	C620.265686,518.777954 626.219910,526.495972 636.120483,529.657959 
	C645.119995,532.532104 654.158264,529.573181 659.260559,521.596252 
	C661.115967,518.695435 663.098755,517.458008 666.514832,517.639099 
	C671.334106,517.894531 676.177734,517.659424 681.010132,517.707764 
	C686.579407,517.763489 687.696167,519.068054 686.030640,524.300049 
	C681.217834,539.419006 670.274597,547.850525 655.271057,551.189514 
	C646.790161,553.076965 638.106873,553.129456 629.073364,551.364380 
M627.809998,475.268463 
	C624.555054,478.041382 622.614502,481.634766 621.054993,485.558472 
	C619.536926,489.377930 620.767700,490.739319 624.690491,490.699829 
	C635.653015,490.589355 646.616943,490.633362 657.580139,490.570221 
	C658.849670,490.562927 660.297485,490.904785 661.557434,489.105408 
	C660.973999,486.103485 660.427368,482.751892 658.561157,479.694122 
	C652.451416,469.683197 639.950134,467.632782 627.809998,475.268463 
z"/>
<path fill="#000000" opacity="1.000000" stroke="none" 
	d="
M249.302063,535.371094 
	C241.853806,514.896423 251.172882,495.523682 277.655914,493.802460 
	C286.399963,493.234192 295.265442,493.038818 304.066223,494.512360 
	C310.109497,495.524231 310.660309,494.760071 310.688629,488.693390 
	C310.737701,478.182220 307.735596,473.449310 299.521576,471.088501 
	C289.813324,468.298218 281.541931,471.193542 276.693512,479.449799 
	C275.220581,481.958038 273.395355,482.986938 270.689270,483.051819 
	C265.188049,483.183624 259.701233,483.136230 254.235931,482.351013 
	C250.431183,481.804321 249.261566,480.178040 250.475281,476.201416 
	C254.739609,462.229706 264.277618,453.986908 278.161224,451.000977 
	C289.132599,448.641327 300.283691,448.738708 311.283997,451.575409 
	C326.779510,455.571350 337.946381,469.239044 338.190765,485.399750 
	C338.483002,504.725098 338.272278,524.057739 338.337555,543.387085 
	C338.352997,547.955017 336.104584,550.154907 331.675659,550.292480 
	C329.011719,550.375244 326.332123,550.188721 323.680908,550.395996 
	C318.130981,550.829956 313.462585,550.123657 313.347015,541.882385 
	C306.049438,548.431641 298.166718,550.663208 289.896545,551.828003 
	C280.504486,553.150818 271.304993,552.471802 262.471100,548.810364 
	C256.345184,546.271423 251.902435,541.976013 249.302063,535.371094 
M275.452667,527.917480 
	C280.240936,533.496887 286.719360,533.146179 292.996735,532.452515 
	C302.306732,531.423889 308.654541,525.923157 310.356262,518.377502 
	C311.004791,515.501892 310.553131,513.430481 307.333649,512.754395 
	C299.206024,511.047577 291.124878,509.271118 282.728546,511.336761 
	C273.959167,513.494202 271.186523,518.997681 275.452667,527.917480 
z"/>
<path fill="#000000" opacity="1.000000" stroke="none" 
	d="
M837.905029,459.032654 
	C855.078674,443.757416 887.267883,446.443207 898.932861,469.078308 
	C902.356995,475.722687 904.174988,482.777466 904.262390,490.136444 
	C904.472107,507.789001 904.212646,525.447021 904.415405,543.099792 
	C904.473938,548.200623 901.954163,550.031189 897.508972,550.160950 
	C892.683228,550.301880 887.847351,550.297791 883.021301,550.161804 
	C878.672485,550.039246 876.519409,548.030945 876.578735,543.259094 
	C876.777527,527.272095 876.631836,511.281067 876.664978,495.291656 
	C876.672974,491.424194 876.120544,487.647552 874.717773,484.077942 
	C872.039734,477.263641 865.878601,473.202576 858.250610,473.418640 
	C849.533203,473.665619 842.323792,476.871124 838.397095,485.200012 
	C836.909424,488.355347 836.265259,491.772522 836.287231,495.365356 
	C836.383240,511.021088 836.339783,526.677734 836.311646,542.334106 
	C836.300781,548.391174 835.392029,549.307373 829.401489,549.361816 
	C824.405334,549.407288 819.408203,549.370422 814.411621,549.346924 
	C810.603333,549.329041 808.615356,547.672729 808.624756,543.581604 
	C808.692078,514.267761 808.661926,484.953766 808.681763,455.639832 
	C808.682739,454.171967 808.453735,452.532867 809.984131,451.573883 
	C818.990173,445.930420 827.538513,439.692810 835.131287,431.536621 
	C836.973328,434.579712 836.244568,437.267914 836.294922,439.791748 
	C836.404602,445.285950 836.274841,450.784943 836.384094,456.279144 
	C836.403931,457.280701 835.345520,459.065826 837.905029,459.032654 
z"/>
<path fill="#000000" opacity="1.000000" stroke="none" 
	d="
M426.868134,501.012329 
	C426.824188,497.850616 426.736877,495.185944 426.744659,492.521545 
	C426.796417,474.790527 410.304993,469.189697 396.966522,476.481781 
	C389.214386,480.719879 386.445129,487.743469 386.384064,496.055084 
	C386.270294,511.545746 386.366821,527.037903 386.344910,542.529419 
	C386.336578,548.420349 385.548187,549.256592 379.806152,549.346375 
	C374.810089,549.424500 369.811829,549.348022 364.814667,549.370911 
	C360.787048,549.389404 358.620514,547.682678 358.627991,543.391724 
	C358.677979,514.574219 358.700195,485.756439 358.618530,456.939087 
	C358.608490,453.401459 360.096222,451.839172 363.430115,451.262939 
	C369.264282,450.254547 375.020142,450.586029 380.775238,451.731873 
	C382.809998,452.136963 384.032532,453.360229 384.286591,455.406647 
	C384.493073,457.069611 384.692352,458.698334 386.239166,460.382172 
	C391.298065,456.881256 396.169220,452.928162 402.412048,451.296600 
	C428.775665,444.406433 453.510132,457.351501 455.168915,489.586792 
	C456.092194,507.529572 455.290344,525.558838 455.378082,543.548584 
	C455.397400,547.511292 453.846191,549.375305 449.798584,549.407104 
	C444.974823,549.444885 440.154877,549.832336 435.330414,549.961243 
	C428.555481,550.142395 426.930176,548.737671 426.873627,541.987061 
	C426.760620,528.495483 426.858154,515.002136 426.868134,501.012329 
z"/>
<path fill="#000000" opacity="1.000000" stroke="none" 
	d="
M735.345703,449.994751 
	C748.737366,457.110199 762.730347,460.157440 777.373901,460.638702 
	C782.657043,460.812317 790.671936,471.937714 789.111572,476.890320 
	C788.302734,479.457520 786.013367,479.916687 783.925293,480.069305 
	C778.607483,480.457977 773.278870,480.380951 767.983337,479.474304 
	C766.357849,479.196045 765.361267,478.353607 764.366943,477.125916 
	C758.063904,469.343872 748.093689,466.425812 738.404541,469.659424 
	C734.312073,471.025208 730.464539,473.246948 730.493713,478.197388 
	C730.523010,483.160980 734.046265,486.227051 738.375244,487.413239 
	C745.070007,489.247589 751.967468,490.372162 758.810913,491.623291 
	C763.868835,492.548035 768.921997,493.380676 773.789001,495.146881 
	C789.545959,500.864899 796.217651,517.278503 789.086609,532.537292 
	C785.223267,540.803955 778.614807,545.936768 770.326660,548.727783 
	C754.377014,554.098816 738.291687,554.210388 722.473022,548.079468 
	C713.432373,544.575562 707.247253,538.090332 704.337585,528.709839 
	C702.889771,524.042053 704.231934,521.583984 709.055725,520.928040 
	C714.864868,520.138123 720.678589,520.738464 726.450562,521.724365 
	C728.225708,522.027588 728.873901,523.436951 729.607117,524.664856 
	C735.644653,534.774475 753.644775,534.337646 760.779968,529.278259 
	C763.526062,527.331177 765.201782,524.859558 764.774109,521.246155 
	C764.289185,517.149170 761.124329,515.570801 757.977356,514.804138 
	C749.445129,512.725342 740.798462,511.106232 732.175476,509.415344 
	C728.734009,508.740509 725.473877,507.505432 722.120483,506.587128 
	C699.918335,500.507080 698.458435,470.713898 714.519592,457.779175 
	C720.422180,453.025574 726.933594,449.371094 735.345703,449.994751 
z"/>
<path fill="#000000" opacity="1.000000" stroke="none" 
	d="
M736.621460,393.343689 
	C743.436462,407.741577 754.085083,416.696472 769.688599,419.117157 
	C781.305481,420.919373 791.244568,416.679413 800.416870,410.074646 
	C807.289307,405.125885 812.695435,398.874664 816.696716,391.397217 
	C817.199463,390.457733 817.347351,389.103577 818.944702,388.860077 
	C820.545471,391.227753 818.736633,393.343719 818.196777,395.357819 
	C812.579102,416.316132 794.177551,430.955109 773.568237,431.069885 
	C752.155212,431.189117 731.427856,414.648376 726.703796,393.686066 
	C722.350830,374.370300 727.918762,357.211578 738.139465,341.070892 
	C744.769653,330.600433 752.465637,321.029846 761.884766,312.896576 
	C763.476868,311.521820 765.224060,310.182739 766.458679,307.154114 
	C755.662415,312.072327 748.991394,320.542511 741.905640,328.334686 
	C740.148254,327.106964 741.064209,326.021790 741.358948,324.984100 
	C748.618042,299.425507 766.811646,285.971222 793.333862,286.544098 
	C805.797852,286.813324 806.302917,287.022949 802.318787,298.947571 
	C795.708008,318.733826 785.275513,335.235870 762.773193,339.848114 
	C758.546936,340.714386 754.339905,341.694611 750.088684,342.413513 
	C745.687683,343.157745 742.567688,345.243561 740.324768,349.267029 
	C732.491394,363.318237 731.032288,377.823639 736.621460,393.343689 
z"/>
<path fill="#000000" opacity="1.000000" stroke="none" 
	d="
M791.322449,597.698730 
	C789.330078,606.108093 789.991028,608.814819 792.335388,617.005005 
	C796.433594,631.322449 790.594727,640.521851 774.849060,642.162292 
	C765.447998,643.141663 755.896667,642.679077 746.412842,642.863098 
	C743.621887,642.917236 741.612732,642.368286 741.632629,638.789001 
	C741.740051,619.477051 741.701660,600.164429 741.732117,580.851990 
	C741.732849,580.372803 741.948242,579.893982 742.343445,578.252136 
	C749.990784,578.252136 757.906067,578.221802 765.820862,578.270020 
	C768.310608,578.285156 770.797485,578.565735 773.288208,578.631592 
	C784.570312,578.929688 791.405090,585.968689 791.322449,597.698730 
M758.398010,630.310242 
	C763.357361,630.903687 768.281067,630.903870 773.175476,629.687378 
	C776.590637,628.838623 779.095703,626.743896 779.274597,623.352478 
	C779.455688,619.921509 776.992188,617.621704 773.787842,616.461487 
	C768.975403,614.719055 763.969421,615.582581 759.036194,615.578735 
	C757.700867,615.577698 756.837097,616.522278 756.753174,617.789429 
	C756.483826,621.853821 755.391846,626.004456 758.398010,630.310242 
M759.319092,590.592712 
	C758.704102,590.824280 757.787903,590.874634 757.522278,591.316284 
	C755.591919,594.525696 756.039612,598.079529 756.970093,601.344238 
	C757.861328,604.471375 760.999817,603.548340 763.381531,603.657043 
	C765.198608,603.739929 767.025574,603.706055 768.844360,603.632141 
	C773.270630,603.452087 776.866394,600.348816 776.302917,596.785583 
	C775.631226,592.537354 772.636780,590.770508 768.466614,590.732849 
	C765.658936,590.707520 762.852051,590.584778 759.319092,590.592712 
z"/>
<path fill="#000000" opacity="1.000000" stroke="none" 
	d="
M342.206207,582.651978 
	C355.609741,592.300659 360.071503,609.958191 353.217499,625.201660 
	C346.986206,639.060120 331.100403,646.279846 315.140808,642.506653 
	C290.549500,636.692627 280.609283,608.441284 296.227539,588.623657 
	C300.992188,582.577881 307.594055,579.205261 314.951080,578.119873 
	C324.241119,576.749268 333.566925,576.988586 342.206207,582.651978 
M332.300232,627.961792 
	C333.759827,626.602478 335.333740,625.345581 336.659546,623.866333 
	C342.864471,616.943359 343.378357,607.003296 338.062195,598.399963 
	C333.800293,591.502747 325.555115,588.297302 317.877991,590.553162 
	C307.202087,593.690125 301.488312,606.640991 305.845184,617.826904 
	C310.242676,629.117126 321.073792,633.546814 332.300232,627.961792 
z"/>
<path fill="#000000" opacity="1.000000" stroke="none" 
	d="
M434.759460,633.748596 
	C418.697449,648.507385 391.880096,646.115662 381.552826,628.920288 
	C374.502655,617.181396 374.390167,604.627686 381.023346,592.787415 
	C387.151794,581.848145 397.355560,577.980408 409.881195,577.421082 
	C427.986816,576.612366 440.477875,589.005798 442.780762,601.382629 
	C444.973816,613.169006 443.637665,624.252930 434.759460,633.748596 
M392.676361,617.607910 
	C395.810120,624.501282 400.461243,629.721802 408.421326,630.570007 
	C415.696350,631.345154 421.391632,628.246033 425.337341,622.182617 
	C429.802704,615.320618 431.065552,608.070496 426.921143,600.563721 
	C419.867371,587.787292 405.004303,585.602417 396.470276,596.227173 
	C391.612457,602.275085 390.024353,609.246521 392.676361,617.607910 
z"/>
<path fill="#000000" opacity="1.000000" stroke="none" 
	d="
M581.861816,614.000000 
	C581.865356,603.512085 581.982727,593.522217 581.813782,583.537170 
	C581.744385,579.435303 582.854126,577.486755 587.431580,577.537476 
	C597.142029,577.645203 597.132141,577.434509 597.124634,587.238953 
	C597.121582,591.233826 597.217041,595.228699 597.207520,599.223511 
	C597.200256,602.280518 598.490295,603.836060 601.714478,603.766602 
	C606.872559,603.655334 612.034302,603.697388 617.194458,603.702332 
	C620.522095,603.705505 621.986877,602.093262 621.941895,598.758179 
	C621.867798,593.266541 622.038879,587.771545 621.964722,582.279907 
	C621.917847,578.805420 622.955688,577.171326 626.910645,577.435120 
	C638.076233,578.179871 637.263306,575.586792 637.248596,588.051208 
	C637.229614,604.198242 637.210693,620.345459 637.125488,636.492249 
	C637.094238,642.408447 636.230408,643.013733 628.799438,642.991943 
	C622.631836,642.973877 622.053284,642.463501 621.976990,636.682861 
	C621.919922,632.355469 621.835693,628.024292 621.954590,623.700012 
	C622.074036,619.358154 620.333435,617.165771 615.786255,617.314087 
	C611.296509,617.460510 606.796082,617.427063 602.304260,617.316345 
	C598.786438,617.229614 597.074463,618.598450 597.154053,622.294495 
	C597.261597,627.284851 596.878784,632.291748 597.119995,637.271423 
	C597.334290,641.695557 595.324524,643.325500 591.226929,643.166077 
	C590.396057,643.133667 589.562561,643.172241 588.730286,643.174194 
	C582.247009,643.189331 581.929260,642.909546 581.890808,636.473633 
	C581.847046,629.149292 581.867676,621.824585 581.861816,614.000000 
z"/>
<path fill="#000000" opacity="1.000000" stroke="none" 
	d="
M467.676819,628.990723 
	C467.676208,613.675537 467.786835,598.857788 467.602478,584.043762 
	C467.551605,579.957703 468.834839,578.370544 473.013947,578.611633 
	C481.968506,579.128296 490.932770,578.336060 499.924835,579.343872 
	C512.339355,580.735229 520.218689,587.461487 523.757080,598.916748 
	C526.888062,609.052734 526.581421,619.285828 520.779968,628.743347 
	C515.216675,637.812500 506.447174,641.475830 496.460083,642.219604 
	C488.512482,642.811523 480.484161,642.234009 472.498413,642.438293 
	C468.779938,642.533447 467.372131,641.116089 467.640533,637.477722 
	C467.835968,634.828552 467.677429,632.153259 467.676819,628.990723 
M508.089386,599.547852 
	C503.349426,590.963135 493.288818,590.499023 485.203644,590.955872 
	C483.049988,591.077576 482.438110,592.384705 482.441345,594.311707 
	C482.458344,604.464417 482.417816,614.617249 482.464630,624.769714 
	C482.474396,626.886353 483.229279,628.630981 485.529053,629.382019 
	C496.016907,632.806946 508.212677,626.085938 510.319122,615.268555 
	C511.304047,610.210510 511.138702,604.966003 508.089386,599.547852 
z"/>
<path fill="#000000" opacity="1.000000" stroke="none" 
	d="
M717.346191,592.006653 
	C717.345154,601.001953 717.355408,609.498901 717.340454,617.995850 
	C717.317200,631.226562 710.306396,640.495972 697.381226,642.809998 
	C682.565918,645.462219 669.321960,640.809204 664.520630,626.382324 
	C663.542908,623.444458 663.520691,620.464722 663.459961,617.500244 
	C663.225098,606.015686 663.290710,594.524109 662.979370,583.042419 
	C662.867004,578.900635 664.313049,577.464233 668.460999,577.589417 
	C679.058960,577.909058 678.316040,576.332153 678.331970,587.647461 
	C678.346069,597.643677 678.291748,607.640137 678.340881,617.636108 
	C678.384705,626.541748 682.533020,630.759888 691.021729,630.682617 
	C698.193665,630.617310 702.665710,625.481628 702.576538,617.392151 
	C702.451904,606.081909 702.349792,594.771301 702.168396,583.461975 
	C702.103455,579.415955 702.814209,577.012634 708.004089,577.432922 
	C717.891907,578.233459 717.330994,575.692688 717.350769,587.509705 
	C717.352966,588.842590 717.347900,590.175415 717.346191,592.006653 
z"/>
<path fill="#000000" opacity="1.000000" stroke="none" 
	d="
M228.683807,634.914307 
	C228.680435,617.770325 228.848373,601.110046 228.566238,584.457275 
	C228.485733,579.705322 230.131104,578.477173 234.579712,578.589417 
	C244.734329,578.845703 254.911087,578.959717 265.056213,578.558472 
	C270.452850,578.345032 270.389069,581.252136 270.475006,585.067261 
	C270.567505,589.172913 269.933441,591.769104 264.824463,591.392578 
	C259.357269,590.989563 253.832825,591.437195 248.341995,591.254150 
	C244.751099,591.134460 242.939301,592.367798 243.347519,596.130310 
	C243.401093,596.624084 243.353760,597.128967 243.352081,597.628662 
	C243.325302,605.613281 243.596985,605.800842 251.379898,605.510925 
	C255.531952,605.356323 259.701172,605.673035 263.854187,605.530334 
	C267.917023,605.390869 267.521423,608.214600 267.270477,610.610535 
	C267.002777,613.166626 269.073975,617.211182 263.928131,617.319275 
	C258.766571,617.427734 253.592560,617.547607 248.440491,617.307983 
	C244.440384,617.121948 243.131561,618.755005 243.296738,622.594604 
	C243.518478,627.748779 243.120331,632.933044 243.421143,638.079102 
	C243.627167,641.603271 242.151337,642.943665 238.940521,643.055725 
	C238.108475,643.084778 237.276169,643.112122 236.443756,643.122986 
	C228.829819,643.222412 228.738190,643.130188 228.683807,634.914307 
z"/>
<path fill="#000000" opacity="1.000000" stroke="none" 
	d="
M523.685913,681.090027 
	C523.688416,679.771912 523.612244,678.930420 523.706238,678.108398 
	C523.952454,675.955322 522.767029,673.046021 526.052612,672.307068 
	C529.147095,671.611206 532.032166,672.166748 533.948242,675.122070 
	C538.022583,681.406311 542.084045,687.699158 546.197449,693.957825 
	C547.238525,695.541870 547.751892,697.770020 550.924622,697.845764 
	C552.717957,689.785461 550.767822,681.460449 552.043335,673.429016 
	C558.474182,671.627136 559.322144,672.184937 559.336426,678.307617 
	C559.361694,689.131470 559.384888,699.955750 559.301025,710.778992 
	C559.285645,712.765503 560.184204,715.481201 557.122742,716.139648 
	C554.238831,716.759949 551.507874,716.469910 549.656982,713.579529 
	C545.259521,706.712463 540.796021,699.887390 536.323242,693.068970 
	C535.425903,691.701111 534.368958,690.438049 533.227722,688.916077 
	C531.102112,690.522156 531.375427,692.560547 531.362732,694.449768 
	C531.325867,699.944763 531.385498,705.440552 531.325928,710.935120 
	C531.299683,713.346619 531.893616,716.179016 527.939514,716.266846 
	C524.138245,716.351135 523.658508,714.050049 523.673096,711.049622 
	C523.721008,701.225220 523.687134,691.400269 523.685913,681.090027 
z"/>
<path fill="#000000" opacity="1.000000" stroke="none" 
	d="
M363.267456,682.140991 
	C363.837555,685.924744 361.733154,687.165161 357.601868,685.997437 
	C355.892181,685.514221 354.869110,684.166504 353.632477,683.078552 
	C349.035828,679.034058 344.182159,678.242920 339.460754,680.772949 
	C334.536682,683.411560 330.791107,690.261414 331.502655,695.326538 
	C332.945038,705.594482 341.236450,711.665588 349.568481,708.468628 
	C353.153412,707.093079 355.707336,704.666321 356.654419,700.363525 
	C353.492584,699.237854 350.372192,699.356934 347.287994,699.398132 
	C344.793060,699.431458 343.020996,698.820557 343.017792,695.877991 
	C343.014832,693.138245 344.732788,692.600952 346.979309,692.606567 
	C351.804749,692.618774 356.630737,692.642517 361.455536,692.583313 
	C364.173187,692.549927 365.295227,693.771729 365.359650,696.493103 
	C365.518982,703.221985 363.765686,709.260132 357.943909,713.000793 
	C350.717377,717.643921 342.848480,717.774353 335.079956,714.179321 
	C327.014160,710.446716 322.090118,701.277710 323.114197,692.414795 
	C324.332367,681.872314 329.900543,674.890259 338.771759,672.781433 
	C349.067780,670.333923 357.877625,673.594604 363.267456,682.140991 
z"/>
<path fill="#000000" opacity="1.000000" stroke="none" 
	d="
M618.617920,694.000610 
	C618.107422,678.864380 629.140320,672.317688 640.318909,671.966187 
	C652.997925,671.567505 662.746094,681.325439 662.917297,693.669189 
	C663.097046,706.626282 653.993774,716.276428 641.500488,716.372437 
	C627.501709,716.480042 618.846375,708.193726 618.617920,694.000610 
M654.492981,693.730469 
	C653.946533,691.822876 653.578796,689.840942 652.821228,688.021179 
	C650.175415,681.665649 643.580627,678.187317 637.569702,679.833801 
	C629.880798,681.939880 626.195007,688.232483 627.330261,697.315186 
	C628.122925,703.656921 633.444519,708.473450 639.798889,708.600586 
	C648.331543,708.771240 652.240051,705.036865 654.492981,693.730469 
z"/>
<path fill="#000000" opacity="1.000000" stroke="none" 
	d="
M248.506027,689.541016 
	C251.032639,693.449097 253.365631,697.050110 255.698639,700.651062 
	C256.008881,700.594666 256.319153,700.538330 256.629395,700.481934 
	C256.629395,691.447327 256.629395,682.412659 256.629395,673.574158 
	C263.604370,671.658936 264.328583,672.153198 264.338806,678.410339 
	C264.356415,689.223694 264.386383,700.037598 264.282715,710.850037 
	C264.264069,712.796875 265.254303,715.558289 262.099030,716.147949 
	C259.406006,716.651123 256.731689,716.436707 255.004608,713.773315 
	C251.294647,708.051941 247.616241,702.310059 243.883392,696.603638 
	C241.812759,693.438293 239.908127,690.136841 236.341370,686.772156 
	C236.341370,695.309692 236.373352,703.039490 236.323303,710.768738 
	C236.306717,713.330688 236.981277,716.445190 232.661453,716.259888 
	C228.798660,716.094177 228.756592,713.415771 228.758133,710.623047 
	C228.764099,699.809692 228.708557,688.995911 228.795532,678.183228 
	C228.812744,676.044556 227.778717,673.090088 231.084625,672.394653 
	C234.106140,671.758972 237.146896,672.080933 239.086105,675.002319 
	C242.212570,679.712280 245.241989,684.486633 248.506027,689.541016 
z"/>
<path fill="#000000" opacity="1.000000" stroke="none" 
	d="
M290.596008,716.334167 
	C278.846924,716.423767 273.789124,713.085754 271.381073,703.972290 
	C269.104706,695.357178 273.766724,686.587463 281.947540,684.095825 
	C290.893677,681.370972 300.618225,685.931946 303.218323,694.072083 
	C306.247101,703.554199 302.233459,712.380798 293.417023,715.598267 
	C292.640808,715.881531 291.830597,716.071777 290.596008,716.334167 
M283.946899,691.332642 
	C282.859344,692.325317 281.537628,693.157227 280.726288,694.339478 
	C277.801788,698.600952 279.042206,705.243408 283.129364,708.035217 
	C286.864197,710.586365 292.046997,709.674988 294.364227,705.760376 
	C296.527527,702.105896 296.650543,698.115662 294.415405,694.453064 
	C292.181030,690.791565 288.804352,689.505737 283.946899,691.332642 
z"/>
<path fill="#000000" opacity="1.000000" stroke="none" 
	d="
M568.306030,709.396606 
	C563.593628,699.208191 565.366821,690.161560 573.041931,685.824524 
	C579.277283,682.301086 585.826416,682.460632 591.945618,686.192749 
	C598.223145,690.021301 598.979065,696.360840 598.235229,702.857239 
	C597.523560,709.072144 594.283569,713.635864 588.046753,715.697021 
	C580.563904,718.169983 574.052673,716.212646 568.306030,709.396606 
M579.544067,709.128845 
	C580.187439,709.281311 580.828979,709.557129 581.474487,709.566650 
	C586.271606,709.637695 590.179382,705.901733 590.616150,700.884521 
	C591.031799,696.110107 587.945984,691.431152 583.785645,690.527527 
	C579.493225,689.595154 575.621338,692.492798 574.083679,697.832214 
	C572.653198,702.799255 575.113770,706.083984 579.544067,709.128845 
z"/>
<path fill="#000000" opacity="1.000000" stroke="none" 
	d="
M720.473877,691.850708 
	C725.341187,683.829712 734.859436,681.069519 742.787292,685.073730 
	C750.700562,689.070618 753.879211,698.740662 750.134155,707.424255 
	C746.902771,714.916748 737.979858,718.493103 729.490234,715.698486 
	C721.559998,713.088013 716.979858,704.113159 719.214539,695.513916 
	C719.505798,694.393188 719.935547,693.308411 720.473877,691.850708 
M735.447449,690.421997 
	C733.897949,690.306702 732.523560,690.793213 731.236511,691.617126 
	C727.173706,694.218201 725.505005,699.883423 727.522217,704.258423 
	C729.349792,708.222107 733.559387,710.382385 737.181519,709.215393 
	C741.834656,707.716309 744.710754,702.655457 743.442444,697.720215 
	C742.480042,693.975037 740.268372,691.215027 735.447449,690.421997 
z"/>
<path fill="#000000" opacity="1.000000" stroke="none" 
	d="
M676.939087,685.403259 
	C690.190674,680.535950 698.300415,686.106079 698.341736,699.790039 
	C698.354797,704.113464 698.262451,708.438049 698.332153,712.760193 
	C698.380249,715.744995 696.646179,716.375549 694.160034,716.327637 
	C691.767334,716.281433 689.766785,715.752014 689.724243,712.841736 
	C689.653809,708.020264 689.632629,703.197327 689.659668,698.375366 
	C689.682251,694.345398 688.760437,690.955017 684.013977,690.490784 
	C680.258850,690.123535 676.633789,693.731018 676.421387,698.142151 
	C676.205688,702.622559 676.283508,707.120605 676.344421,711.609375 
	C676.381042,714.307617 675.700378,716.166809 672.535034,716.186279 
	C669.608887,716.204224 668.152161,714.651184 668.120239,711.933838 
	C668.022522,703.621399 667.893250,695.301758 668.145142,686.996094 
	C668.264099,683.073914 670.859497,682.687134 676.939087,685.403259 
z"/>
<path fill="#000000" opacity="1.000000" stroke="none" 
	d="
M776.732910,692.376648 
	C770.627441,688.727417 765.686157,691.184509 765.402527,697.750916 
	C765.201660,702.403503 765.288696,707.071594 765.352722,711.731323 
	C765.389709,714.425598 764.739014,716.281128 761.544739,716.290222 
	C758.596436,716.298645 756.739807,715.386047 756.759949,712.043945 
	C756.809082,703.888000 756.667053,695.729797 756.813904,687.576233 
	C756.879883,683.913513 759.632996,682.253540 762.413208,684.465881 
	C764.543030,686.160706 765.661804,685.377197 767.604431,684.660156 
	C774.873840,681.976624 784.934448,683.531433 786.523865,694.433105 
	C787.398865,700.434082 787.061340,706.377197 787.133667,712.350342 
	C787.170410,715.384888 785.351807,716.356506 782.592102,716.302429 
	C779.919250,716.250061 778.640259,715.001282 778.662659,712.303406 
	C778.698608,707.975952 778.602905,703.646973 778.670715,699.320374 
	C778.708313,696.921875 778.299927,694.693848 776.732910,692.376648 
z"/>
<path fill="#000000" opacity="1.000000" stroke="none" 
	d="
M382.506104,689.765747 
	C379.159088,692.408997 376.106171,694.684387 371.769958,691.580078 
	C372.839142,686.138184 376.465546,684.142700 381.509247,683.358704 
	C390.824188,681.910828 397.274719,687.050842 397.339996,696.317444 
	C397.377472,701.639526 397.232666,706.964966 397.371185,712.283630 
	C397.472656,716.181396 395.235504,717.309326 392.397858,715.814453 
	C390.059296,714.582458 388.493347,715.162048 386.406708,715.827454 
	C377.409821,718.696228 370.501556,714.594299 370.656616,706.636780 
	C370.754974,701.589111 373.611115,698.420715 378.890381,697.739380 
	C380.692047,697.506836 382.553864,697.773071 384.369690,697.607971 
	C386.188080,697.442566 388.756592,698.615234 389.406403,695.802979 
	C390.082520,692.876709 388.170135,691.127869 385.727112,690.041748 
	C384.872894,689.661987 383.808838,689.754395 382.506104,689.765747 
M388.665436,707.279846 
	C389.355835,705.872742 390.028687,704.228760 387.954132,703.637024 
	C384.894623,702.764221 381.681366,702.443542 379.148102,705.003479 
	C377.879944,706.285034 378.365662,707.772766 379.535797,708.956421 
	C382.094513,711.544861 384.657684,710.212341 387.177490,708.856201 
	C387.596619,708.630676 387.901886,708.193542 388.665436,707.279846 
z"/>
<path fill="#000000" opacity="1.000000" stroke="none" 
	d="
M471.858398,690.803955 
	C466.503357,693.480591 465.575012,697.882263 466.467163,702.816528 
	C467.632355,709.261108 473.942322,711.660645 478.905548,707.478760 
	C481.839142,705.006897 485.483154,702.739563 487.874756,706.112305 
	C490.161102,709.336609 486.219543,712.085876 483.591736,713.949707 
	C477.425110,718.323181 467.138885,717.120605 461.952698,711.705566 
	C456.850128,706.377869 456.124786,696.615356 460.369537,690.398743 
	C464.816010,683.886719 473.426208,681.459778 480.815094,684.752502 
	C484.565430,686.423706 487.432434,688.942627 488.277557,693.505432 
	C484.773010,694.769470 481.901123,694.839417 479.163177,692.501404 
	C477.189117,690.815674 474.872650,689.955811 471.858398,690.803955 
z"/>
<path fill="#000000" opacity="1.000000" stroke="none" 
	d="
M437.286316,675.281616 
	C437.304413,686.736816 437.306458,697.717773 437.302887,708.698669 
	C437.302582,709.696533 437.310059,710.697571 437.238617,711.691711 
	C436.993591,715.101868 434.694244,716.183533 431.754395,716.172546 
	C428.628204,716.160889 428.662109,713.768127 428.661438,711.535828 
	C428.657715,699.556641 428.627045,687.577209 428.691437,675.598389 
	C428.702179,673.605286 427.982513,670.997253 431.368744,670.726990 
	C434.471283,670.479553 437.168030,670.747253 437.286316,675.281616 
z"/>
<path fill="#000000" opacity="1.000000" stroke="none" 
	d="
M414.728516,696.981079 
	C411.972137,701.643250 413.618042,706.394409 413.216919,710.951355 
	C412.966522,713.795898 412.646210,716.324890 408.900574,716.323120 
	C406.362671,716.321960 404.714996,715.488464 404.717957,712.647461 
	C404.726776,704.182800 404.619995,695.716370 404.765900,687.254272 
	C404.823303,683.923157 408.239655,682.159790 411.122253,684.365967 
	C413.604523,686.265625 415.434204,685.579773 417.907135,685.064697 
	C420.192505,684.588562 423.827515,683.017578 424.507507,686.827026 
	C425.025330,689.727966 425.280060,693.774902 419.929169,693.605225 
	C417.911743,693.541382 416.337524,695.164978 414.728516,696.981079 
z"/>
<path fill="#000000" opacity="1.000000" stroke="none" 
	d="
M704.729980,699.001221 
	C704.734863,695.016846 704.818542,691.528259 704.724060,688.044556 
	C704.637512,684.853638 706.089294,683.668823 709.228088,683.604004 
	C712.683594,683.532593 713.407837,685.270935 713.370972,688.238342 
	C713.276306,695.874207 713.281128,703.512878 713.372192,711.148865 
	C713.409119,714.240662 712.740906,716.336121 709.041382,716.268250 
	C705.343689,716.200317 704.728455,713.931274 704.752441,710.954712 
	C704.783203,707.136475 704.741516,703.317749 704.729980,699.001221 
z"/>
<path fill="#000000" opacity="1.000000" stroke="none" 
	d="
M452.347717,693.039917 
	C452.340576,699.532410 452.279968,705.529968 452.350281,711.525940 
	C452.382080,714.239502 451.657288,716.040039 448.554138,716.201965 
	C445.359863,716.368652 443.884186,714.830383 443.863953,711.793701 
	C443.810638,703.798401 443.868652,695.802124 443.781586,687.807373 
	C443.744629,684.414368 445.589081,683.674927 448.545105,683.623779 
	C451.831665,683.566956 452.469879,685.349365 452.349670,688.047119 
	C452.282959,689.543213 452.344147,691.045044 452.347717,693.039917 
z"/>
<path fill="#000000" opacity="1.000000" stroke="none" 
	d="
M492.222229,711.631653 
	C491.784637,706.406982 495.026428,706.677124 498.345520,706.585999 
	C502.334412,706.476501 502.425171,708.926941 502.358154,711.787415 
	C502.288788,714.749573 502.625793,717.748230 501.149475,720.515259 
	C499.612518,723.395935 497.548706,725.033508 494.007324,723.885132 
	C493.926056,720.771118 497.897675,719.800354 496.991516,716.308411 
	C495.815399,714.889099 492.058167,715.532288 492.222229,711.631653 
z"/>
<path fill="#000000" opacity="1.000000" stroke="none" 
	d="
M709.835876,680.401367 
	C707.604736,680.649597 706.246338,679.741516 705.288147,678.288452 
	C703.953552,676.264587 704.102600,674.145447 705.600952,672.305969 
	C706.865540,670.753418 708.677551,670.346375 710.561157,671.035217 
	C712.994080,671.925110 713.546753,673.922791 713.324219,676.271179 
	C713.134155,678.277222 712.124207,679.657715 709.835876,680.401367 
z"/>
<path fill="#000000" opacity="1.000000" stroke="none" 
	d="
M450.206543,671.410400 
	C453.204803,673.523499 453.364410,675.953308 451.760437,678.528015 
	C450.545471,680.478149 448.625397,680.867126 446.552277,679.993530 
	C444.025208,678.928772 443.193787,676.804810 443.791260,674.318481 
	C444.563782,671.103699 446.848755,670.307068 450.206543,671.410400 
z"/>
</svg>